<svg version="1.0" xmlns="http://www.w3.org/2000/svg" width="981.333" height="981.333" viewBox="0 0 736 736"><path d="M119.4 8l-2.9.5v727.6l143-.4c78.6-.3 145-.7 147.5-1 2.5-.3 6.5-.8 8.9-1.1 7.3-.9 20.7-3.1 32.6-5.2 11.8-2.2 38.9-11.3 52.2-17.6 4.5-2.1 8.7-3.8 9.2-3.8.6 0 1.1-.5 1.1-1 0-.6.5-1 1-1 .9 0 17.9-10.1 20.5-12.2.6-.5 3.5-2.7 6.5-5.1 11.9-9.1 22.3-19.3 33.1-32.4 7.8-9.5 24.9-40 24.9-44.6 0-.9.5-1.7 1-1.7.6 0 1-.6 1-1.3 0-.7 1.2-4.8 2.6-9.2 1.4-4.4 2.7-8.7 2.9-9.5.2-.8 1-4.4 1.8-8 1.5-6.3 1.8-8.2 3.3-18.5.3-2.8.9-5.9 1.1-7 1.2-5 1-47.5-.2-55-.7-4.4-1.5-9.9-1.9-12.3-.3-2.4-.8-4.7-1.1-5.1-.2-.5-.7-2.6-1.1-4.6-.6-4.2-5-18.1-6.4-20.7-.6-1-1-2.3-1-2.9 0-1.4-10.7-23.2-14.4-29.3-7.6-12.7-26.6-34.1-37.5-42.1-2.2-1.7-5.3-4-6.8-5.3-1.6-1.3-4.1-3-5.8-3.9-1.6-.8-3.7-2.1-4.5-2.9-3.2-2.7-22.8-11.9-33.2-15.4l-10.7-3.6 3.2-1.6c8.2-3.9 19.8-10.2 25.2-13.8 3.3-2.2 6.7-4.3 7.5-4.6.8-.4 1.7-1 2-1.4.3-.3 3.4-2.8 7-5.5 10-7.6 28.7-26.8 32.4-33.4.5-.9 1.2-1.8 1.5-2.1 3.3-2.8 14.6-24.1 18.5-34.8 3-8.3 6.6-22 7.1-27.1.3-2 .7-6.3 1.1-9.6.7-6.5.7-30.9 0-39-.8-9.6-1.6-16-2.6-21.5-.5-3-1.2-6.8-1.5-8.3-.2-1.6-1.6-7.1-3-12.4-12.1-44.5-41.2-79.5-83.8-100.9-8-4.1-22.8-10.4-25.2-10.8-.5-.1-2.3-.7-4-1.4-2.9-1.1-23.4-6.6-28.5-7.6-14.2-2.7-19.2-3.6-23-4.1-2.5-.3-5.2-.8-6-1-.8-.2-5.1-.7-9.5-1-4.4-.4-9.8-.9-12-1.1-2.2-.2-10-.6-17.4-.8-7.3-.3-13.6-.7-13.8-1-.3-.3-1.6-.1-2.9.4-1.6.6-2.4.6-2.4-.1 0-.6-.4-.8-.8-.5-.5.3-2.8.5-5.3.6-13.3.2-20.6.3-22.1.2-9.6-.4-17.9-.3-18.7.3-.6.3-1.1.1-1.1-.5s-.4-.9-.8-.6c-.5.3-2.8.5-5.3.6-13.3.2-20.6.3-22.1.2-9.6-.4-17.9-.3-18.7.3-.6.3-1.1.1-1.1-.5s-.4-.9-.8-.6c-.5.3-2.8.5-5.3.6-13.3.2-20.6.3-22.1.2-9.6-.4-17.9-.3-18.7.3-.6.3-1.1.1-1.1-.5s-.4-.9-.8-.6c-.5.3-2.8.5-5.3.6-13.3.2-20.6.3-22.1.2-9.6-.4-17.9-.3-18.7.3-.6.3-1.1.1-1.1-.5s-.4-.9-.9-.6c-.7.5-7.5.8-12.1.5h-10.5c-4.9.1-11.1 0-13.6-.1-2.5-.2-5.9-.1-7.5.2zM387 88.4c36.7 4.4 65.4 15.4 80.5 31 4.7 4.8 10.5 12.1 12.1 15.1.6 1.1 2.2 4 3.6 6.5 5.3 9.6 10 25 11.5 37.7 1 8.5 1 35.1 0 41.8-3.4 23.3-13.1 42.9-29.2 59-9.8 9.9-11.3 11.1-20.6 16.7-16.1 9.7-36.9 17.1-53.9 19.2-1.9.3-3.5.5-3.5.6 0 .9-19.4 1.3-90.7 1.7l-83.8.4V86.9l84.3.4c46.3.2 86.7.7 89.7 1.1zm12.5 308c2.8.2 6.4.6 8 .9 1.7.3 5 .9 7.5 1.2 2.5.4 5.4.9 6.5 1.2 1.1.3 2.7.6 3.5.7 12.5 2.2 33.1 11.2 45.5 20.1 27.2 19.4 42.7 51.9 45.1 94.5.2 4.1.5 7.9.5 8.5.2 2-1.1 24.1-1.5 26.1-.2 1.2-.7 3.7-1 5.5-.3 1.9-.8 4.5-1.1 5.9-.3 1.4-.8 3.5-1.1 4.8-2 9.9-11.1 30.1-17 37.7-1.9 2.5-3.4 4.7-3.4 4.9 0 2.2-23.3 23.6-25.6 23.6-.4 0-1.7.9-2.8 1.9-3.2 3-21.1 11.5-31.1 14.9-8.8 2.9-20.5 5.6-29.5 6.7-2.5.3-6.3.8-8.5 1.1-2.2.4-43.7.7-92.2.8l-88.3.1V526.8c0-89.9.3-130.7 1-131 1.5-.5 179.5.1 185.5.6z"/></svg>